<?xml version="1.0" encoding="utf-8"?>
<!-- Generator: Adobe Illustrator 22.1.0, SVG Export Plug-In . SVG Version: 6.00 Build 0)  -->
<svg version="1.1" xmlns="http://www.w3.org/2000/svg" xmlns:xlink="http://www.w3.org/1999/xlink" x="0px" y="0px"
	 viewBox="0 0 350 350" style="enable-background:new 0 0 350 350;" xml:space="preserve">
<style type="text/css">
	.st0{display:none;}
	.st1{display:inline;fill:#FFFFFF;stroke:#000000;stroke-miterlimit:10;}
	.st2{display:inline;fill:none;stroke:#000000;stroke-miterlimit:10;}
	.st3{fill:#1A1A1A;}
	.st4{fill:#333333;}
	.st5{fill:#4D4D4D;}
	.st6{fill:#666666;}
	.st7{fill:#808080;}
	.st8{fill:#999999;}
	.st9{fill:#B3B3B3;}
</style>
<g id="Layer_1" class="st0">
	<circle class="st1" cx="169.8" cy="167.7" r="139.7"/>
	<line class="st2" x1="169.8" y1="167.7" x2="279.6" y2="57.9"/>
	<line class="st2" x1="169.8" y1="167.7" x2="20.1" y2="317.4"/>
	<line class="st2" x1="169.8" y1="167.7" x2="295.6" y2="293.5"/>
	<line class="st2" x1="169.8" y1="167.7" x2="45" y2="42.9"/>
	<line class="st2" x1="169.8" y1="167.7" x2="63.6" y2="61.5"/>
	<line class="st2" x1="169.8" y1="167.7" x2="329" y2="102.1"/>
	<line class="st2" x1="169.8" y1="167.7" x2="23.2" y2="105.3"/>
	<line class="st2" x1="-52.3" y1="167.7" x2="365.8" y2="167.7"/>
	<line class="st2" x1="169.8" y1="21" x2="169.8" y2="330.2"/>
	<line class="st2" x1="169.4" y1="167.6" x2="239.3" y2="337.7"/>
	<line class="st2" x1="169.4" y1="167.6" x2="352.5" y2="238.3"/>
	<line class="st2" x1="169.4" y1="167.6" x2="103.1" y2="335.4"/>
	<line class="st2" x1="169.4" y1="167.6" x2="-15.3" y2="242.5"/>
	<line class="st2" x1="169.4" y1="167.6" x2="232.7" y2="10.7"/>
	<line class="st2" x1="169.4" y1="167.6" x2="100" y2="3.3"/>
</g>
<g id="Layer_2">
	<circle cx="170" cy="28" r="25"/>
	<circle class="st3" cx="268.9" cy="70.5" r="22.5"/>
	<circle class="st4" cx="309.4" cy="167.7" r="20"/>
	<circle class="st5" cx="268.9" cy="267.1" r="17.5"/>
	<circle class="st6" cx="169.8" cy="307.4" r="15"/>
	<circle class="st7" cx="71.5" cy="267.1" r="12.5"/>
	<circle class="st8" cx="30" cy="167.7" r="10"/>
	<circle class="st9" cx="71.5" cy="69.4" r="7.5"/>
</g>
</svg>
